<svg width="72" height="72" viewBox="0 0 72 72" fill="none" xmlns="http://www.w3.org/2000/svg">
<path d="M31.7356 42.1428C30.8666 44.6583 30.6156 46.4903 29.9371 47.734C29.6908 48.1762 29.2992 48.5196 28.8286 48.706C28.358 48.8924 27.8374 48.9103 27.3551 48.7566C25.3214 48.1323 23.2479 47.6462 21.1487 47.3016C20.9063 47.2611 20.6727 47.1794 20.4579 47.0599C16.3628 44.8164 11.9489 43.6516 11 44.6005C10.5368 44.9196 10.2036 45.3944 10.0611 45.9385C9.91863 46.4826 9.97628 47.0597 10.2236 47.5649C10.9882 49.8587 17.452 52.7788 18.7887 54.2929L24.6377 60.142C24.6377 60.142 31.61 65.0583 35.435 65.0372C47.4984 64.9708 54.9871 49.2418 55 45.4723C54.9906 44.3711 54.8973 43.2721 54.7207 42.1851C54.5438 41.1635 54.2837 40.158 53.943 39.1788" stroke="black" stroke-width="2" stroke-linecap="round" stroke-linejoin="round"/>
<path d="M24.5042 35.6935L15.9949 37.7253C15.5708 37.8847 15.1194 37.9585 14.6666 37.9425C14.2139 37.9265 13.7688 37.821 13.357 37.6321C12.9453 37.4432 12.575 37.1746 12.2676 36.8419C11.9602 36.5091 11.7217 36.1188 11.5659 35.6934C11.3724 33.81 12.028 33.2885 13.4244 32.3034C13.7749 32.1078 14.1442 31.9477 14.5267 31.8257L24.151 28.7757C24.7452 28.605 25.3727 28.586 25.9762 28.7204" stroke="black" stroke-width="2" stroke-linecap="round" stroke-linejoin="round"/>
<path d="M31.7356 42.1428L24.6377 35.7709" stroke="black" stroke-width="2" stroke-linecap="round" stroke-linejoin="round"/>
<path d="M25.01 28.6125C25.8371 28.5941 26.6522 28.813 27.359 29.2431C27.6526 29.4194 27.9179 29.6389 28.146 29.8944L36.4754 36.5884" stroke="black" stroke-width="2" stroke-linecap="round" stroke-linejoin="round"/>
<path d="M32.4365 29.9218L25.01 15.2084C24.135 13.1302 23.499 11.662 25.01 10.5214C26.521 9.3714 28.0007 10.1601 29.151 11.6714C29.307 11.8761 37.7003 24.6872 40.2349 28.9375V28.9475" stroke="black" stroke-width="2" stroke-linecap="round" stroke-linejoin="round"/>
<path d="M48.0929 31.395C46.7086 25.8774 42.0178 10.1967 41.93 9.9724C41.8455 9.60857 41.6886 9.2655 41.4685 8.9637C41.2485 8.6619 40.9698 8.40756 40.6493 8.2159C40.3287 8.02424 39.9728 7.89918 39.6027 7.8482C39.2327 7.79722 38.8562 7.82137 38.4958 7.9192C36.7119 8.5919 36.4758 10.6099 36.7567 12.3786L37.7325 19.0665" stroke="black" stroke-width="2" stroke-linecap="round" stroke-linejoin="round"/>
<path d="M47.4 18.5064C47.5188 16.5996 48.0442 14.9104 49.6763 14.7237C50.2081 14.661 50.7459 14.7732 51.2083 15.0434C51.6706 15.3137 52.0323 15.7272 52.2386 16.2214C52.5784 16.8984 52.7683 17.6406 52.7954 18.3976C53.0278 22.3176 53.9607 38.6369 53.9607 38.6369C53.9658 38.8161 53.956 38.9955 53.9315 39.1731" stroke="black" stroke-width="2" stroke-linecap="round" stroke-linejoin="round"/>
<path d="M39.6751 28.0814L43.1657 33.5938" stroke="black" stroke-width="2" stroke-linecap="round" stroke-linejoin="round"/>
</svg>
