<svg width="72" height="72" viewBox="0 0 72 72" fill="none" xmlns="http://www.w3.org/2000/svg">
<path d="M37.3855 15.7375C37.1015 13.8082 38.4354 12.0139 40.3647 11.73C42.294 11.446 44.0883 12.7798 44.3722 14.7092C44.4177 15.0185 44.422 15.3324 44.3848 15.6428L44.6419 34.6411L44.6371 35.5924L44.4443 25.9671C44.1603 24.0378 45.4942 22.2435 47.4235 21.9596C49.3528 21.6757 51.1471 23.0094 51.431 24.9388C51.4765 25.2481 51.4808 25.562 51.4436 25.8724L51.6196 38.8711L51.567 48.9564C51.1422 57.2666 43.8151 62.5857 35.507 62.161C30.7152 61.8956 26.187 59.8829 22.7792 56.5038C19.8614 53.4134 12.6936 44.969 12.6936 44.969C11.2307 42.8108 12.3654 39.4751 13.4943 40.2964L23.3699 44.9473L23.4088 39.5477L23.3693 17.6972C23.0853 15.7679 24.4192 13.9736 26.3485 13.6897C28.2778 13.4058 30.0721 14.7395 30.356 16.6689C30.4015 16.9782 30.4058 17.2921 30.3686 17.6025L30.4633 24.6019L30.6494 35.2384L30.2823 13.0456C29.9983 11.1163 31.3322 9.32201 33.2615 9.03811C35.1908 8.75411 36.9851 10.0879 37.269 12.0173C37.3145 12.3266 37.3188 12.6405 37.2816 12.9509L37.4574 33.4047" stroke="black" stroke-width="2" stroke-linecap="round" stroke-linejoin="round"/>
</svg>
