<svg width="72" height="72" viewBox="0 0 72 72" fill="none" xmlns="http://www.w3.org/2000/svg">
<path d="M36.5 6.5C35.8333 5.5 34 1.5 31 3C28.8084 4.09581 30.5 7.5 30.5 7.5L36.5 23.5H34L26.5 23H13C11.8333 23.5 9.5 25 9.5 27C9.5 29 10.8333 30.1667 11.5 30.5C10.1667 31.1667 7.6 32.9 8 34.5C8.4 36.1 11.5 37.5 13 38C11.8333 38.5 9.5 40.1 9.5 42.5C9.5 44.9 14.1667 45.5 16.5 45.5C15.8333 46 14.5 47.4 14.5 49C14.5 50.6 15.8333 51.3333 16.5 51.5H31H38L47 50L52 45.5L54 38.5V32.5L50.5 25.5L45 17L36.5 6.5Z" fill="white"/>
<path d="M31.9545 51.4636H40.5787C48.5523 51.4636 53.9942 44.7826 53.9942 36.4636C53.9746 31.6645 52.27 27.0395 49.2029 23.4636" stroke="black" stroke-width="2" stroke-linecap="round" stroke-linejoin="round"/>
<path d="M32.54 23.4636H36.7458L30.038 5.46356C29.2609 3.37956 32.7115 1.66356 34.8293 4.46356L49.203 23.4636" stroke="black" stroke-width="2" stroke-linecap="round" stroke-linejoin="round"/>
<path d="M29.8349 26.9636C29.6886 29.0274 27.9815 30.5862 26.0019 30.4636H13.5447C11.6924 30.7214 9.9906 29.3635 9.74347 27.4305C9.49634 25.4975 10.7976 23.7215 12.6499 23.4636C12.9469 23.4223 13.2477 23.4223 13.5446 23.4636H26.0018C27.9815 23.341 29.6886 24.8998 29.8349 26.9636Z" stroke="black" stroke-width="2" stroke-linecap="round" stroke-linejoin="round"/>
<path d="M29.0136 48.2996C28.8673 50.3634 27.1602 51.9222 25.1806 51.7996H18.4729C16.6206 52.0574 14.9188 50.6995 14.6716 48.7665C14.4245 46.8335 15.7258 45.0575 17.5781 44.7996C17.875 44.7583 18.1758 44.7583 18.4728 44.7996H25.1805C27.1602 44.677 28.8673 46.2358 29.0136 48.2996Z" stroke="black" stroke-width="2" stroke-linecap="round" stroke-linejoin="round"/>
<path d="M33.8711 34.2996C33.7247 36.3634 32.0176 37.9222 30.0381 37.7996H11.8314C9.9791 38.0574 8.27725 36.6995 8.03012 34.7665C7.78299 32.8335 9.08429 31.0575 10.9366 30.7996C11.2335 30.7583 11.5343 30.7583 11.8313 30.7996H30.038C32.0176 30.677 33.7247 32.2358 33.8711 34.2996Z" stroke="black" stroke-width="2" stroke-linecap="round" stroke-linejoin="round"/>
<path d="M31.9546 41.2996C31.8083 43.3634 30.1012 44.9222 28.1216 44.7996H13.7479C11.8956 45.0574 10.1938 43.6995 9.94667 41.7665C9.69954 39.8335 11.0008 38.0575 12.8531 37.7996C13.1501 37.7583 13.4509 37.7583 13.7478 37.7996H28.1215C30.1012 37.677 31.8083 39.2358 31.9546 41.2996Z" stroke="black" stroke-width="2" stroke-linecap="round" stroke-linejoin="round"/>
<path d="M52.1736 28.1256C53.3005 30.5767 53.9227 33.2471 54 35.9646C54 44.5246 49.5681 51.4646 39.5065 51.4646" stroke="black" stroke-width="2" stroke-miterlimit="10"/>
</svg>
