<svg width="72" height="72" viewBox="0 0 72 72" fill="none" xmlns="http://www.w3.org/2000/svg">
<path d="M39.5159 65.1541C38.8498 66.1576 37.0182 70.1713 34.0209 68.6661C31.8313 67.5666 33.5214 64.1507 33.5214 64.1507L39.5159 48.0959H37.0182L29.525 48.5976H16.0373C14.8717 48.0959 12.5404 46.5908 12.5404 44.5839C12.5404 42.5771 13.8726 41.4064 14.5386 41.0719C13.2065 40.403 11.0418 40.1165 11.0418 37.0582C11.0418 34 14.5386 34.048 16.0373 33.5462C14.8717 33.0445 12.5404 33.9692 12.5404 29.5C12.5404 26.9692 17.2029 26.0205 19.5341 26.0205C17.5 25.5 17 24.1055 17 22.5C17 20.8945 18.868 20.1672 19.5341 20H34H41.0145H46C46 20 48.5 20 50.5 21.5C52.5 23 54.0018 24.5205 55 26C55.9982 27.4795 57 32.0445 57 33.5C57 34.9555 57.5 37.1302 57 39.0651C56.5 41 53.5032 46.0891 53.5032 46.0891L48.0082 54.6182L39.5159 65.1541Z" fill="white" stroke="black" stroke-width="2"/>
</svg>
