<svg width="72" height="72" viewBox="0 0 72 72" fill="none" xmlns="http://www.w3.org/2000/svg">
<path d="M37.7659 25.7375C37.4819 23.8082 38.8158 22.0139 40.7451 21.73C42.6744 21.446 44.4687 22.7798 44.7526 24.7092C44.7981 25.0185 44.7526 25.3442 44.8247 25.6775V26.6383V27.0892V27.354V26.8638C44.5407 24.9345 46.1961 24.5404 47.5 24.5C49.4293 24.2161 51.5275 26.0094 51.8114 27.9388C51.8569 28.2481 51.8612 28.562 51.824 28.8724L52 31.8711L51.9474 39.9564C51.5226 48.2666 44.1955 53.5857 35.8874 53.161C31.0956 52.8956 26.5674 50.8829 23.1596 47.5038C20.2418 44.4134 16.6993 37.1726 16.6993 37.1726C15.2364 35.0144 17 31.5 18 31.5L22.5 32.5L24 33.5L23.7892 29.8627C23.8287 27.9606 24.0707 24.1941 26 23.9102C27.9293 23.6263 30.3788 23.7854 30.6627 25.7148M30.6627 25.9317V25.0456C30.3787 23.1163 31.7126 21.322 33.6419 21.0381C35.5712 20.7541 37.3425 21.0878 37.6264 23.0172C37.6719 23.3265 37.8031 23.5998 37.7659 23.9102L37.7238 24.7092L37.7286 25.2955" fill="white"/>
<path d="M37.7659 25.7375C37.4819 23.8082 38.8158 22.0139 40.7451 21.73C42.6744 21.446 44.4687 22.7798 44.7526 24.7092C44.7981 25.0185 44.7526 25.3442 44.8247 25.6775V26.6383V27.0892V27.354V26.8638C44.5407 24.9345 46.1961 24.5404 47.5 24.5C49.4293 24.2161 51.5275 26.0094 51.8114 27.9388C51.8569 28.2481 51.8612 28.562 51.824 28.8724L52 31.8711L51.9474 39.9564C51.5226 48.2666 44.1955 53.5857 35.8874 53.161C31.0956 52.8956 26.5674 50.8829 23.1596 47.5038C20.2418 44.4134 16.6993 37.1726 16.6993 37.1726C15.2364 35.0144 17 31.5 18 31.5L22.5 32.5L24 33.5L23.7892 29.8627C23.8287 27.9606 24.0707 24.1941 26 23.9102C27.9293 23.6263 30.3788 23.7854 30.6627 25.7148M30.6627 25.9317V25.0456C30.3787 23.1163 31.7126 21.322 33.6419 21.0381C35.5712 20.7541 37.3425 21.0878 37.6264 23.0172C37.6719 23.3265 37.8031 23.5998 37.7659 23.9102L37.7238 24.7092L37.7286 25.2955" stroke="black" stroke-width="2" stroke-linecap="round" stroke-linejoin="round"/>
</svg>
