<svg width="72" height="72" viewBox="0 0 72 72" fill="none" xmlns="http://www.w3.org/2000/svg">
<path d="M43.7413 34.9892V32.6562C43.7413 31.5562 41.9523 30.4562 39.7653 30.2152L38.7163 30.0982C36.5293 29.8562 34.7403 28.2472 34.7403 26.3242C34.7403 24.4012 36.5403 22.9902 38.7403 22.9902H48.7403C50.9414 22.9454 52.797 24.6218 52.9753 26.8162L53.6323 38.0292" stroke="black" stroke-width="2" stroke-linecap="round" stroke-linejoin="round"/>
<path d="M37.9633 38.0552C39.5935 36.5756 41.5869 35.5549 43.7403 35.0972" stroke="black" stroke-width="2" stroke-linecap="round" stroke-linejoin="round"/>
<path d="M16.7761 39.479C17.9749 48.5081 25.7414 55.2112 34.8488 55.0771C44.998 55.0771 53.6343 47.9033 53.6343 37.3572" stroke="black" stroke-width="2" stroke-miterlimit="10" stroke-linecap="round"/>
<path d="M16.7761 39.479V35.9583" stroke="black" stroke-width="2" stroke-linecap="round" stroke-linejoin="round"/>
<path d="M20.3076 32.9647C18.2438 32.812 16.685 31.0305 16.8076 28.9647V21.9647C16.5498 20.0317 17.9077 18.2557 19.8407 17.9978C21.7737 17.74 23.5497 19.0979 23.8076 21.0309C23.8489 21.3408 23.8489 21.6548 23.8076 21.9646V28.9646C23.9302 31.0305 22.3714 32.812 20.3076 32.9647Z" stroke="black" stroke-width="2" stroke-linecap="round" stroke-linejoin="round"/>
<path d="M28.7444 31.8273C25.4224 33.0544 23.7474 29.8931 23.87 27.8273V20.8273C23.6122 18.8943 24.9701 17.1183 26.9031 16.8604C28.8361 16.6026 30.6121 17.9605 30.87 19.8935C30.9113 20.2034 30.9113 20.5174 30.87 20.8272" stroke="black" stroke-width="2" stroke-linecap="round" stroke-linejoin="round"/>
<path d="M30.9324 24.4656V19.148C30.6746 17.215 32.0325 15.439 33.9655 15.1811C35.8985 14.9233 37.6745 16.2812 37.9324 18.2142C37.9737 18.5241 37.9737 18.8381 37.9324 19.1479" stroke="black" stroke-width="2" stroke-linecap="round" stroke-linejoin="round"/>
<path d="M37.9948 19.148C37.737 17.215 39.0949 15.439 41.0279 15.1811C42.9609 14.9233 44.7369 16.2812 44.9948 18.2142C45.0361 18.5241 45.0361 18.8381 44.9948 19.1479" stroke="black" stroke-width="2" stroke-linecap="round" stroke-linejoin="round"/>
</svg>
