<svg width="72" height="72" viewBox="0 0 72 72" fill="none" xmlns="http://www.w3.org/2000/svg">
<mask id="mask0_526_1672" style="mask-type:alpha" maskUnits="userSpaceOnUse" x="9" y="7" width="54" height="57">
<rect x="9" y="7" width="53.4375" height="57" fill="#D9D9D9"/>
</mask>
<g mask="url(#mask0_526_1672)">
<path d="M47.2123 55.8318H23.6579V29.9077L37.591 15L38.1434 15.402C38.4089 15.6577 38.5994 15.9302 38.7151 16.2195C38.8307 16.5088 38.8885 16.8041 38.8885 17.1056V17.3796L36.5977 29.9077H54.2218C55.0182 29.9077 55.7311 30.2434 56.3606 30.9148C56.99 31.5862 57.3047 32.3466 57.3047 33.1962V36.1924C57.3047 36.506 57.2726 36.8508 57.2083 37.2269C57.1441 37.6029 57.0621 37.9173 56.9621 38.17L50.9761 53.169C50.6707 53.9089 50.159 54.5377 49.4411 55.0553C48.7232 55.573 47.9803 55.8318 47.2123 55.8318ZM21.9451 29.9077V55.8318H15V29.9077H21.9451Z" fill="#8A8A8A"/>
</g>
</svg>
