<svg width="72" height="72" viewBox="0 0 72 72" fill="none" xmlns="http://www.w3.org/2000/svg">
<path d="M38.245 32.4998C39.8423 30.9777 42.4321 30.9777 44.0295 32.4998C45.6269 34.0218 45.6268 36.4896 44.0295 38.0117L42.5413 39.3747C44.1386 37.8527 46.7284 37.8527 48.3258 39.3747C49.9232 40.8968 49.9231 43.3646 48.3258 44.8867L46.8797 46.2646C48.477 44.7426 51.0668 44.7426 52.6642 46.2646C54.2616 47.7867 54.2615 50.2545 52.6642 51.7766L45.907 58.1957C39.5178 64.2839 29.1589 64.2839 22.7697 58.1957C16.3805 52.1075 16.425 42.2791 22.8142 36.1909L28.7615 30.5237L47.0251 13.1206C48.6207 11.6001 51.2077 11.6001 52.8033 13.1206C54.3989 14.641 54.3989 17.1062 52.8033 18.6266L38.245 32.4998Z" stroke="black" stroke-width="2" stroke-linecap="round" stroke-linejoin="round"/>
<path d="M39.7775 15.0283C39.7775 11.5344 36.743 9 33.9456 9C32.3048 9 31.6058 9.62195 31.6058 10.9009C31.6058 17.4167 31.4053 20.4699 29.0759 25.6042" stroke="black" stroke-width="2" stroke-linecap="round" stroke-linejoin="round"/>
</svg>
