<svg width="147" height="72" viewBox="0 0 147 72" fill="none" xmlns="http://www.w3.org/2000/svg">
<g clip-path="url(#clip0_458_1072)">
<mask id="mask0_458_1072" style="mask-type:luminance" maskUnits="userSpaceOnUse" x="0" y="0" width="147" height="72">
<path d="M147 0H0V72H147V0Z" fill="white"/>
</mask>
<g mask="url(#mask0_458_1072)">
<mask id="mask1_458_1072" style="mask-type:alpha" maskUnits="userSpaceOnUse" x="113" y="17" width="40" height="40">
<path d="M153 17H113V57H153V17Z" fill="#D9D9D9"/>
</mask>
<g mask="url(#mask1_458_1072)">
<path d="M141.039 38.3892H119.664V35.6115H141.039L131.039 25.6114L132.997 23.667L146.331 37.0003L132.997 50.3337L131.039 48.3892L141.039 38.3892Z" fill="#BFBFBF"/>
</g>
<mask id="mask2_458_1072" style="mask-type:alpha" maskUnits="userSpaceOnUse" x="-6" y="17" width="40" height="40">
<path d="M-6 57L34 57L34 17L-6 17L-6 57Z" fill="#D9D9D9"/>
</mask>
<g mask="url(#mask2_458_1072)">
<path d="M5.96058 35.6108H27.3356V38.3885H5.96058L15.9606 48.3886L14.0023 50.333L0.668945 36.9997L14.0023 23.6663L15.9606 25.6108L5.96058 35.6108Z" fill="#BFBFBF"/>
</g>
</g>
<path d="M62.4808 39.7658C61.6805 39.9117 57.9009 37.5908 56.2846 36.4272C56.2026 36.3681 56.1155 36.3093 56.0204 36.2505C52.9201 34.3332 50.6773 33.721 48.753 36.5789C48.0147 37.7354 47.4939 40.2009 48.8009 40.5076C54.8362 42.3997 59.3991 49.0346 59.3991 49.0346C60.9256 50.9492 63.1914 54.7362 64.743 56.6268C70.2623 63.3518 81.6562 64.3523 85.9347 56.6268C87.9009 53.0771 89.1896 44.6977 90.4493 40.7845C91.4154 37.7832 94.7112 28.9403 94.7112 28.9403C96.1847 24.1196 91.6455 22.1759 89.5304 27.04L87.1248 33.089C86.4258 34.8756 84.4003 35.6144 84.8294 32.5573L87.4276 19.3409C88.3897 13.649 83.0425 12.0425 81.6932 18.2883L78.8969 33.1117C78.8969 33.6314 77.4341 37.3375 77.747 30.76L78.4517 14.1069C78.4517 7.09194 72.5047 7.50662 72.5047 14.1069L71.733 32.3425C71.733 32.3425 71.2193 36.56 69.8204 32.3425L67.0397 15.4131C65.9315 10.3317 60.3703 12.1455 61.2793 17.083L64.4726 36.5239C64.7429 38.1105 64.4345 39.7306 63.0401 39.7306L62.4808 39.7658Z" fill="white" stroke="black" stroke-width="2" stroke-linecap="round" stroke-linejoin="round"/>
</g>
<defs>
<clipPath id="clip0_458_1072">
<rect width="147" height="72" fill="white"/>
</clipPath>
</defs>
</svg>
