<svg width="123" height="105" viewBox="0 0 123 105" fill="none" xmlns="http://www.w3.org/2000/svg">
<g clip-path="url(#clip0_430_1000)">
<path d="M52.4808 75.7658C51.6805 75.9117 47.9009 73.5908 46.2846 72.4272C46.2026 72.3681 46.1155 72.3093 46.0204 72.2505C42.9201 70.3332 40.6773 69.721 38.753 72.5789C38.0147 73.7354 37.4939 76.2009 38.8009 76.5076C44.8362 78.3997 49.3991 85.0346 49.3991 85.0346C50.9256 86.9492 53.1914 90.7362 54.743 92.6268C60.2623 99.3518 71.6562 100.352 75.9347 92.6268C77.9009 89.0771 79.1896 80.6977 80.4493 76.7845C81.4154 73.7832 84.7112 64.9403 84.7112 64.9403C86.1847 60.1196 81.6455 58.1759 79.5304 63.04L77.1248 69.089C76.4258 70.8756 74.4003 71.6144 74.8294 68.5573L77.4276 55.3409C78.3897 49.649 73.0425 48.0425 71.6932 54.2883L68.8969 69.1117C68.8969 69.6314 67.4341 73.3375 67.747 66.76L68.4517 50.1069C68.4517 43.0919 62.5047 43.5066 62.5047 50.1069L61.733 68.3425C61.733 68.3425 61.2193 72.56 59.8204 68.3425L57.0397 51.4131C55.9315 46.3317 50.3703 48.1455 51.2793 53.083L54.4726 72.5239C54.7429 74.1105 54.4345 75.7306 53.0401 75.7306L52.4808 75.7658Z" fill="white" stroke="black" stroke-width="2" stroke-linecap="round" stroke-linejoin="round"/>
<mask id="mask0_430_1000" style="mask-type:alpha" maskUnits="userSpaceOnUse" x="-9" y="-5" width="40" height="40">
<rect x="-9" y="-5" width="40" height="40" fill="#D9D9D9"/>
</mask>
<g mask="url(#mask0_430_1000)">
<path d="M9.66667 24.889V8.66675L2.94442 15.3057L1 13.3335L11.0278 3.30566L21.0555 13.3335L19.1111 15.2779L12.4445 8.61121V24.889H9.66667Z" fill="#BFBFBF"/>
</g>
<mask id="mask1_430_1000" style="mask-type:alpha" maskUnits="userSpaceOnUse" x="41" y="-5" width="40" height="40">
<rect x="41" y="-5" width="40" height="40" fill="#D9D9D9"/>
</mask>
<g mask="url(#mask1_430_1000)">
<path d="M59.6667 24.889V8.66675L52.9444 15.3057L51 13.3335L61.0278 3.30566L71.0555 13.3335L69.1111 15.2779L62.4445 8.61121V24.889H59.6667Z" fill="#BFBFBF"/>
</g>
<mask id="mask2_430_1000" style="mask-type:alpha" maskUnits="userSpaceOnUse" x="91" y="-5" width="40" height="40">
<rect x="91" y="-5" width="40" height="40" fill="#D9D9D9"/>
</mask>
<g mask="url(#mask2_430_1000)">
<path d="M109.667 24.889V8.66675L102.944 15.3057L101 13.3335L111.028 3.30566L121.056 13.3335L119.111 15.2779L112.444 8.61121V24.889H109.667Z" fill="#BFBFBF"/>
</g>
</g>
<defs>
<clipPath id="clip0_430_1000">
<rect width="123" height="105" fill="white"/>
</clipPath>
</defs>
</svg>
