<svg width="72" height="72" viewBox="0 0 72 72" fill="none" xmlns="http://www.w3.org/2000/svg">
<path d="M23.4808 39.7658C22.6805 39.9117 18.9009 37.5908 17.2846 36.4272C17.2026 36.3681 17.1155 36.3093 17.0204 36.2505C13.9201 34.3332 11.6773 33.721 9.75296 36.5789C9.01468 37.7354 8.4939 40.2009 9.80095 40.5076C15.8362 42.3997 20.3991 49.0346 20.3991 49.0346C21.9256 50.9492 24.1914 54.7362 25.743 56.6268C31.2623 63.3518 42.6562 64.3523 46.9347 56.6268C48.9009 53.0771 50.1896 44.6977 51.4493 40.7845C52.4154 37.7832 55.7112 28.9403 55.7112 28.9403C57.1847 24.1196 52.6455 22.1759 50.5304 27.04L48.1248 33.089C47.4258 34.8756 45.4003 35.6144 45.8294 32.5573L48.4276 19.3409C49.3897 13.649 44.0425 12.0425 42.6932 18.2883L39.8969 33.1117C39.8969 33.6314 38.4341 37.3375 38.747 30.76L39.4517 14.1069C39.4517 7.09194 33.5047 7.50662 33.5047 14.1069L32.733 32.3425C32.733 32.3425 32.2193 36.56 30.8204 32.3425L28.0397 15.4131C26.9315 10.3317 21.3703 12.1455 22.2793 17.083L25.4726 36.5239C25.7429 38.1105 25.4345 39.7306 24.0401 39.7306L23.4808 39.7658Z" fill="white" stroke="black" stroke-width="2" stroke-linecap="round" stroke-linejoin="round"/>
<rect x="55" y="14" width="5" height="16" transform="rotate(-90 55 14)" fill="white" stroke="black" stroke-width="2"/>
<rect x="60.5" y="3.5" width="5" height="16" fill="white" stroke="black" stroke-width="2"/>
<rect x="59" y="10" width="9" height="3" fill="white"/>
</svg>
