<svg width="72" height="72" viewBox="0 0 72 72" fill="none" xmlns="http://www.w3.org/2000/svg">
<path d="M55.4792 47.6473C55.4792 56.7356 48.1117 64.1031 39.0234 64.1031C29.9351 64.1031 22.5676 56.7356 22.5676 47.6473" stroke="black" stroke-width="2" stroke-miterlimit="10" stroke-linecap="round" stroke-linejoin="round"/>
<path d="M55.4792 46.7738V34.7738" stroke="black" stroke-width="2" stroke-miterlimit="10" stroke-linecap="round" stroke-linejoin="round"/>
<path d="M48.4869 34.4804C48.5679 32.5491 50.1992 31.0491 52.1305 31.1302C54.0618 31.2112 55.5617 32.8425 55.4807 34.7738" stroke="black" stroke-width="2" stroke-miterlimit="10" stroke-linecap="round" stroke-linejoin="round"/>
<path d="M41.49 34.2475C41.571 32.3162 43.2023 30.8163 45.1336 30.8973C47.0649 30.9783 48.5649 32.6096 48.4838 34.5409" stroke="black" stroke-width="2" stroke-miterlimit="10" stroke-linecap="round" stroke-linejoin="round"/>
<path d="M41.494 34.1136C41.649 32.1868 43.3366 30.7505 45.2634 30.9055C47.1902 31.0605 48.6265 32.7481 48.4715 34.6749" stroke="black" stroke-width="2" stroke-miterlimit="10" stroke-linecap="round" stroke-linejoin="round"/>
<path d="M34.4524 33.7692C34.5761 31.8402 36.2402 30.3767 38.1692 30.5004C40.0982 30.6241 41.5617 32.2882 41.438 34.2172" stroke="black" stroke-width="2" stroke-miterlimit="10" stroke-linecap="round" stroke-linejoin="round"/>
<path d="M17.4986 35.9928C16.1557 34.6024 16.1942 32.3867 17.5846 31.0438C18.975 29.7009 21.1907 29.7394 22.5336 31.1298" stroke="black" stroke-width="2" stroke-miterlimit="10" stroke-linecap="round" stroke-linejoin="round"/>
<path d="M27.4524 11.3969C27.4524 9.4639 29.0194 7.8969 30.9524 7.8969C32.8854 7.8969 34.4524 9.4639 34.4524 11.3969" stroke="black" stroke-width="2" stroke-miterlimit="10" stroke-linecap="round" stroke-linejoin="round"/>
<path d="M34.4524 33.7321V11.3969" stroke="black" stroke-width="2" stroke-miterlimit="10" stroke-linecap="round" stroke-linejoin="round"/>
<path d="M27.4524 11.3969V39.1875" stroke="black" stroke-width="2" stroke-miterlimit="10" stroke-linecap="round" stroke-linejoin="round"/>
<path d="M24.4916 33.3435L22.5336 31.1298" stroke="black" stroke-width="2" stroke-miterlimit="10" stroke-linecap="round" stroke-linejoin="round"/>
<path d="M19.2663 38.3125C21.2189 40.4564 22.6397 43.4802 22.5676 47.8343" stroke="black" stroke-width="2" stroke-miterlimit="10" stroke-linecap="round" stroke-linejoin="round"/>
<path d="M17.4986 35.9928L19.32 38.373" stroke="black" stroke-width="2" stroke-miterlimit="10" stroke-linecap="round" stroke-linejoin="round"/>
</svg>
