<svg width="277" height="72" viewBox="0 0 277 72" fill="none" xmlns="http://www.w3.org/2000/svg">
<g clip-path="url(#clip0_528_1714)">
<path d="M179.481 39.7658C178.68 39.9117 174.901 37.5908 173.285 36.4272C173.203 36.3681 173.115 36.3093 173.02 36.2505C169.92 34.3332 167.677 33.721 165.753 36.5789C165.015 37.7354 164.494 40.2009 165.801 40.5076C171.836 42.3997 176.399 49.0346 176.399 49.0346C177.926 50.9492 180.191 54.7362 181.743 56.6268C187.262 63.3518 198.656 64.3523 202.935 56.6268C204.901 53.0771 206.19 44.6977 207.449 40.7845C208.415 37.7832 211.711 28.9403 211.711 28.9403C213.185 24.1196 208.645 22.1759 206.53 27.04L204.125 33.089C203.426 34.8756 201.4 35.6144 201.829 32.5573L204.428 19.3409C205.39 13.649 200.042 12.0425 198.693 18.2883L195.897 33.1117C195.897 33.6314 194.434 37.3375 194.747 30.76L195.452 14.1069C195.452 7.09194 189.505 7.50662 189.505 14.1069L188.733 32.3425C188.733 32.3425 188.219 36.56 186.82 32.3425L184.04 15.4131C182.931 10.3317 177.37 12.1455 178.279 17.083L181.473 36.5239C181.743 38.1105 181.434 39.7306 180.04 39.7306L179.481 39.7658Z" fill="white" stroke="black" stroke-width="2" stroke-linecap="round" stroke-linejoin="round"/>
<mask id="mask0_528_1714" style="mask-type:alpha" maskUnits="userSpaceOnUse" x="115" y="24" width="30" height="30">
<path d="M145 24H115V54H145V24Z" fill="#D9D9D9"/>
</mask>
<g mask="url(#mask0_528_1714)">
<path d="M136.029 40.0421H119.998V37.9589H136.029L128.529 30.4588L129.998 29.0005L139.998 39.0005L129.998 49.0005L128.529 47.5421L136.029 40.0421Z" fill="#BFBFBF"/>
</g>
<path d="M83.6245 30.7879C83.3405 28.8586 84.6744 27.0643 86.6037 26.7804C88.533 26.4964 90.3273 27.8302 90.6112 29.7596C90.6567 30.0689 90.6112 30.3946 90.6833 30.7279V31.6887V32.1396V32.4044V31.9142C90.3993 29.9849 92.0547 29.5908 93.3586 29.5504C95.2879 29.2665 97.3861 31.0598 97.67 32.9892C97.7155 33.2985 97.7198 33.6124 97.6826 33.9228L97.8586 36.9215L97.806 45.0068C97.3812 53.317 90.0541 58.6361 81.746 58.2114C76.9542 57.946 72.426 55.9333 69.0182 52.5542C66.1004 49.4638 62.5579 42.223 62.5579 42.223C61.095 40.0648 62.8586 36.5504 63.8586 36.5504L68.3586 37.5504L69.8586 38.5504L69.6478 34.9131C69.6873 33.011 69.9293 29.2445 71.8586 28.9606C73.7879 28.6767 76.2374 28.8358 76.5213 30.7652M76.5213 30.9821V30.096C76.2373 28.1667 77.5712 26.3724 79.5005 26.0885C81.4298 25.8045 83.2011 26.1382 83.485 28.0676C83.5305 28.3769 83.6617 28.6502 83.6245 28.9606L83.5824 29.7596L83.5872 30.3459" stroke="black" stroke-width="2" stroke-linecap="round" stroke-linejoin="round"/>
</g>
<defs>
<clipPath id="clip0_528_1714">
<rect width="277" height="72" fill="white"/>
</clipPath>
</defs>
</svg>
