<svg width="163" height="72" viewBox="0 0 163 72" fill="none" xmlns="http://www.w3.org/2000/svg">
<g clip-path="url(#clip0_528_1714)">
<path d="M16.4808 39.7658C15.6805 39.9117 11.9009 37.5908 10.2846 36.4272C10.2026 36.3681 10.1155 36.3093 10.0204 36.2505C6.9201 34.3332 4.6773 33.721 2.75296 36.5789C2.01468 37.7354 1.4939 40.2009 2.80095 40.5076C8.8362 42.3997 13.3991 49.0346 13.3991 49.0346C14.9256 50.9492 17.1914 54.7362 18.743 56.6268C24.2623 63.3518 35.6562 64.3523 39.9347 56.6268C41.9009 53.0771 43.1896 44.6977 44.4493 40.7845C45.4154 37.7832 48.7112 28.9403 48.7112 28.9403C50.1847 24.1196 45.6455 22.1759 43.5304 27.04L41.1248 33.089C40.4258 34.8756 38.4003 35.6144 38.8294 32.5573L41.4276 19.3409C42.3897 13.649 37.0425 12.0425 35.6932 18.2883L32.8969 33.1117C32.8969 33.6314 31.4341 37.3375 31.747 30.76L32.4517 14.1069C32.4517 7.09194 26.5047 7.50662 26.5047 14.1069L25.733 32.3425C25.733 32.3425 25.2193 36.56 23.8204 32.3425L21.0397 15.4131C19.9315 10.3317 14.3703 12.1455 15.2793 17.083L18.4726 36.5239C18.7429 38.1105 18.4345 39.7306 17.0401 39.7306L16.4808 39.7658Z" fill="white" stroke="black" stroke-width="2" stroke-linecap="round" stroke-linejoin="round"/>
<mask id="mask0_528_1714" style="mask-type:alpha" maskUnits="userSpaceOnUse" x="69" y="24" width="30" height="30">
<path d="M99 24H69V54H99V24Z" fill="#D9D9D9"/>
</mask>
<g mask="url(#mask0_528_1714)">
<path d="M90.0293 40.0421H73.998V37.9589H90.0293L82.5293 30.4588L83.9978 29.0005L93.9983 39.0005L83.9978 49.0005L82.5293 47.5421L90.0293 40.0421Z" fill="#BFBFBF"/>
</g>
<path d="M146.624 30.7879C146.34 28.8586 147.674 27.0643 149.604 26.7804C151.533 26.4964 153.327 27.8302 153.611 29.7596C153.657 30.0689 153.611 30.3946 153.683 30.7279V31.6887V32.1396V32.4044V31.9142C153.399 29.9849 155.055 29.5908 156.359 29.5504C158.288 29.2665 160.386 31.0598 160.67 32.9892C160.715 33.2985 160.72 33.6124 160.683 33.9228L160.859 36.9215L160.806 45.0068C160.381 53.317 153.054 58.6361 144.746 58.2114C139.954 57.946 135.426 55.9333 132.018 52.5542C129.1 49.4638 125.558 42.223 125.558 42.223C124.095 40.0648 125.859 36.5504 126.859 36.5504L131.359 37.5504L132.859 38.5504L132.648 34.9131C132.687 33.011 132.929 29.2445 134.859 28.9606C136.788 28.6767 139.237 28.8358 139.521 30.7652M139.521 30.9821V30.096C139.237 28.1667 140.571 26.3724 142.5 26.0885C144.43 25.8045 146.201 26.1382 146.485 28.0676C146.53 28.3769 146.662 28.6502 146.624 28.9606L146.582 29.7596L146.587 30.3459" stroke="black" stroke-width="2" stroke-linecap="round" stroke-linejoin="round"/>
</g>
<defs>
<clipPath id="clip0_528_1714">
<rect width="163" height="72" fill="white"/>
</clipPath>
</defs>
</svg>
